<mxfile host="app.diagrams.net" agent="Mozilla/5.0 (Windows NT 10.0; Win64; x64; rv:139.0) Gecko/20100101 Firefox/139.0" version="27.1.6">
  <diagram name="Page-1" id="OEwQ7DR9d7gLu-CYRtbG">
    <mxGraphModel dx="4960" dy="2061" grid="1" gridSize="10" guides="1" tooltips="1" connect="1" arrows="1" fold="1" page="1" pageScale="1" pageWidth="827" pageHeight="1169" math="0" shadow="0">
      <root>
        <mxCell id="0" />
        <mxCell id="1" parent="0" />
        <mxCell id="BN8fjITRdAaJ6UBTvMnP-1" value="Combien de lignes, 1 ou 2 ?" style="rounded=0;whiteSpace=wrap;html=1;fillColor=default;" vertex="1" parent="1">
          <mxGeometry x="-740" y="-420" width="120" height="60" as="geometry" />
        </mxCell>
        <mxCell id="BN8fjITRdAaJ6UBTvMnP-2" value="" style="endArrow=classic;html=1;rounded=0;exitX=0;exitY=1;exitDx=0;exitDy=0;entryX=0.75;entryY=0;entryDx=0;entryDy=0;" edge="1" parent="1" source="BN8fjITRdAaJ6UBTvMnP-5" target="BN8fjITRdAaJ6UBTvMnP-6">
          <mxGeometry width="50" height="50" relative="1" as="geometry">
            <mxPoint x="-170" y="60" as="sourcePoint" />
            <mxPoint x="-340" y="130" as="targetPoint" />
            <Array as="points" />
          </mxGeometry>
        </mxCell>
        <mxCell id="BN8fjITRdAaJ6UBTvMnP-6" value="MÃªme date ?" style="rounded=0;whiteSpace=wrap;html=1;" vertex="1" parent="1">
          <mxGeometry x="-2100" y="2.200000000000003" width="120" height="50" as="geometry" />
        </mxCell>
        <mxCell id="BN8fjITRdAaJ6UBTvMnP-9" value="" style="endArrow=classic;html=1;rounded=0;exitX=0.25;exitY=1;exitDx=0;exitDy=0;entryX=0.5;entryY=0;entryDx=0;entryDy=0;" edge="1" parent="1" source="BN8fjITRdAaJ6UBTvMnP-12" target="BN8fjITRdAaJ6UBTvMnP-13">
          <mxGeometry width="50" height="50" relative="1" as="geometry">
            <mxPoint x="-1100" y="220" as="sourcePoint" />
            <mxPoint x="-1180" y="290" as="targetPoint" />
            <Array as="points" />
          </mxGeometry>
        </mxCell>
        <mxCell id="BN8fjITRdAaJ6UBTvMnP-10" value="" style="endArrow=classic;html=1;rounded=0;exitX=0.75;exitY=1;exitDx=0;exitDy=0;entryX=0.5;entryY=0;entryDx=0;entryDy=0;" edge="1" parent="1" source="BN8fjITRdAaJ6UBTvMnP-44" target="BN8fjITRdAaJ6UBTvMnP-18">
          <mxGeometry width="50" height="50" relative="1" as="geometry">
            <mxPoint x="-340" y="180" as="sourcePoint" />
            <mxPoint x="-240" y="250" as="targetPoint" />
          </mxGeometry>
        </mxCell>
        <mxCell id="BN8fjITRdAaJ6UBTvMnP-13" value="mreg ?" style="rounded=0;whiteSpace=wrap;html=1;" vertex="1" parent="1">
          <mxGeometry x="-2570" y="180" width="120" height="50" as="geometry" />
        </mxCell>
        <mxCell id="BN8fjITRdAaJ6UBTvMnP-18" value="mreg ?" style="rounded=0;whiteSpace=wrap;html=1;" vertex="1" parent="1">
          <mxGeometry x="-1090" y="140" width="120" height="50" as="geometry" />
        </mxCell>
        <mxCell id="BN8fjITRdAaJ6UBTvMnP-22" value="Mode de reg ?" style="rounded=0;whiteSpace=wrap;html=1;" vertex="1" parent="1">
          <mxGeometry x="379.3599999999999" y="52.19999999999999" width="120" height="50" as="geometry" />
        </mxCell>
        <mxCell id="BN8fjITRdAaJ6UBTvMnP-23" value="" style="endArrow=classic;html=1;rounded=0;exitX=1;exitY=1;exitDx=0;exitDy=0;entryX=0.25;entryY=0;entryDx=0;entryDy=0;" edge="1" parent="1" source="BN8fjITRdAaJ6UBTvMnP-4" target="BN8fjITRdAaJ6UBTvMnP-22">
          <mxGeometry width="50" height="50" relative="1" as="geometry">
            <mxPoint x="70.00000000000023" y="-10.000000000000057" as="sourcePoint" />
            <mxPoint x="-900.6400000000001" y="142.2" as="targetPoint" />
          </mxGeometry>
        </mxCell>
        <mxCell id="BN8fjITRdAaJ6UBTvMnP-47" value="" style="endArrow=classic;html=1;rounded=0;exitX=0.833;exitY=1;exitDx=0;exitDy=0;exitPerimeter=0;entryX=0.25;entryY=0;entryDx=0;entryDy=0;" edge="1" parent="1" source="BN8fjITRdAaJ6UBTvMnP-304" target="BN8fjITRdAaJ6UBTvMnP-106">
          <mxGeometry width="50" height="50" relative="1" as="geometry">
            <mxPoint x="-690.6400000000001" y="182.2" as="sourcePoint" />
            <mxPoint x="-620.6400000000001" y="232.2" as="targetPoint" />
          </mxGeometry>
        </mxCell>
        <mxCell id="BN8fjITRdAaJ6UBTvMnP-48" value="" style="endArrow=classic;html=1;rounded=0;exitX=0.25;exitY=1;exitDx=0;exitDy=0;entryX=0.629;entryY=0.076;entryDx=0;entryDy=0;entryPerimeter=0;" edge="1" parent="1" source="BN8fjITRdAaJ6UBTvMnP-306" target="BN8fjITRdAaJ6UBTvMnP-150">
          <mxGeometry width="50" height="50" relative="1" as="geometry">
            <mxPoint x="-720.6400000000001" y="192.2" as="sourcePoint" />
            <mxPoint x="219.35999999999967" y="232.19999999999982" as="targetPoint" />
            <Array as="points" />
          </mxGeometry>
        </mxCell>
        <mxCell id="BN8fjITRdAaJ6UBTvMnP-106" value="montant ADH &amp;gt;0 ?" style="rounded=0;whiteSpace=wrap;html=1;" vertex="1" parent="1">
          <mxGeometry x="729.9999999999999" y="237.79999999999998" width="120" height="50" as="geometry" />
        </mxCell>
        <mxCell id="BN8fjITRdAaJ6UBTvMnP-146" value="&lt;div&gt;montant ACT &amp;gt;0 ?&lt;/div&gt;" style="rounded=0;whiteSpace=wrap;html=1;" vertex="1" parent="1">
          <mxGeometry x="939.9999999999999" y="367.8" width="120" height="50" as="geometry" />
        </mxCell>
        <mxCell id="BN8fjITRdAaJ6UBTvMnP-147" value="" style="endArrow=classic;html=1;rounded=0;exitX=0.75;exitY=1;exitDx=0;exitDy=0;entryX=0.25;entryY=0;entryDx=0;entryDy=0;" edge="1" parent="1" source="BN8fjITRdAaJ6UBTvMnP-266" target="BN8fjITRdAaJ6UBTvMnP-146">
          <mxGeometry width="50" height="50" relative="1" as="geometry">
            <mxPoint x="439.3599999999999" y="342.2" as="sourcePoint" />
            <mxPoint x="489.3599999999999" y="292.2" as="targetPoint" />
          </mxGeometry>
        </mxCell>
        <mxCell id="BN8fjITRdAaJ6UBTvMnP-149" value="" style="endArrow=classic;html=1;rounded=0;exitX=0.75;exitY=1;exitDx=0;exitDy=0;entryX=0.25;entryY=0;entryDx=0;entryDy=0;" edge="1" parent="1" source="BN8fjITRdAaJ6UBTvMnP-146" target="BN8fjITRdAaJ6UBTvMnP-216">
          <mxGeometry width="50" height="50" relative="1" as="geometry">
            <mxPoint x="739.3599999999999" y="342.2" as="sourcePoint" />
            <mxPoint x="1169.36" y="522.2" as="targetPoint" />
          </mxGeometry>
        </mxCell>
        <mxCell id="BN8fjITRdAaJ6UBTvMnP-150" value="montant ADH &amp;gt;0 ?" style="rounded=0;whiteSpace=wrap;html=1;" vertex="1" parent="1">
          <mxGeometry x="-10" y="232.2" width="120" height="50" as="geometry" />
        </mxCell>
        <mxCell id="BN8fjITRdAaJ6UBTvMnP-151" value="&lt;div&gt;montant ACT &amp;gt;0 ?&lt;/div&gt;" style="rounded=0;whiteSpace=wrap;html=1;" vertex="1" parent="1">
          <mxGeometry x="210" y="377.8" width="120" height="50" as="geometry" />
        </mxCell>
        <mxCell id="BN8fjITRdAaJ6UBTvMnP-152" value="" style="endArrow=classic;html=1;rounded=0;exitX=0.75;exitY=1;exitDx=0;exitDy=0;entryX=0.25;entryY=0;entryDx=0;entryDy=0;" edge="1" parent="1" source="BN8fjITRdAaJ6UBTvMnP-166" target="BN8fjITRdAaJ6UBTvMnP-151">
          <mxGeometry width="50" height="50" relative="1" as="geometry">
            <mxPoint x="-61" y="430" as="sourcePoint" />
            <mxPoint x="-11" y="380" as="targetPoint" />
          </mxGeometry>
        </mxCell>
        <mxCell id="BN8fjITRdAaJ6UBTvMnP-153" value="" style="endArrow=classic;html=1;rounded=0;exitX=0.75;exitY=1;exitDx=0;exitDy=0;entryX=0.5;entryY=0;entryDx=0;entryDy=0;" edge="1" parent="1" source="BN8fjITRdAaJ6UBTvMnP-151" target="BN8fjITRdAaJ6UBTvMnP-224">
          <mxGeometry width="50" height="50" relative="1" as="geometry">
            <mxPoint x="249.99999999999955" y="390" as="sourcePoint" />
            <mxPoint x="340" y="480" as="targetPoint" />
          </mxGeometry>
        </mxCell>
        <mxCell id="BN8fjITRdAaJ6UBTvMnP-154" value="" style="endArrow=classic;html=1;rounded=0;exitX=0.25;exitY=1;exitDx=0;exitDy=0;entryX=0.75;entryY=0;entryDx=0;entryDy=0;" edge="1" parent="1" source="BN8fjITRdAaJ6UBTvMnP-267" target="BN8fjITRdAaJ6UBTvMnP-155">
          <mxGeometry width="50" height="50" relative="1" as="geometry">
            <mxPoint x="640" y="380" as="sourcePoint" />
            <mxPoint x="600" y="320" as="targetPoint" />
          </mxGeometry>
        </mxCell>
        <mxCell id="BN8fjITRdAaJ6UBTvMnP-155" value="&lt;div&gt;montant ACT &amp;gt;0 ?&lt;/div&gt;" style="rounded=0;whiteSpace=wrap;html=1;" vertex="1" parent="1">
          <mxGeometry x="590" y="367.8" width="120" height="50" as="geometry" />
        </mxCell>
        <mxCell id="BN8fjITRdAaJ6UBTvMnP-156" value="" style="endArrow=classic;html=1;rounded=0;exitX=0.75;exitY=1;exitDx=0;exitDy=0;entryX=0.5;entryY=0;entryDx=0;entryDy=0;" edge="1" parent="1" source="BN8fjITRdAaJ6UBTvMnP-155" target="BN8fjITRdAaJ6UBTvMnP-220">
          <mxGeometry width="50" height="50" relative="1" as="geometry">
            <mxPoint x="600" y="402.2" as="sourcePoint" />
            <mxPoint x="720" y="520.2" as="targetPoint" />
          </mxGeometry>
        </mxCell>
        <mxCell id="BN8fjITRdAaJ6UBTvMnP-157" value="" style="endArrow=classic;html=1;rounded=0;exitX=0.25;exitY=1;exitDx=0;exitDy=0;entryX=0.5;entryY=0;entryDx=0;entryDy=0;" edge="1" parent="1" source="BN8fjITRdAaJ6UBTvMnP-146" target="BN8fjITRdAaJ6UBTvMnP-218">
          <mxGeometry width="50" height="50" relative="1" as="geometry">
            <mxPoint x="780" y="470" as="sourcePoint" />
            <mxPoint x="840" y="510" as="targetPoint" />
          </mxGeometry>
        </mxCell>
        <mxCell id="BN8fjITRdAaJ6UBTvMnP-159" value="" style="endArrow=classic;html=1;rounded=0;exitX=0.25;exitY=1;exitDx=0;exitDy=0;entryX=0.5;entryY=0;entryDx=0;entryDy=0;" edge="1" parent="1" source="BN8fjITRdAaJ6UBTvMnP-155" target="BN8fjITRdAaJ6UBTvMnP-222">
          <mxGeometry width="50" height="50" relative="1" as="geometry">
            <mxPoint x="569" y="402.2" as="sourcePoint" />
            <mxPoint x="500" y="510" as="targetPoint" />
          </mxGeometry>
        </mxCell>
        <mxCell id="BN8fjITRdAaJ6UBTvMnP-160" value="" style="endArrow=classic;html=1;rounded=0;exitX=0.25;exitY=1;exitDx=0;exitDy=0;entryX=0.5;entryY=0;entryDx=0;entryDy=0;" edge="1" parent="1" source="BN8fjITRdAaJ6UBTvMnP-151" target="BN8fjITRdAaJ6UBTvMnP-226">
          <mxGeometry width="50" height="50" relative="1" as="geometry">
            <mxPoint x="129" y="402.2" as="sourcePoint" />
            <mxPoint x="160" y="480" as="targetPoint" />
          </mxGeometry>
        </mxCell>
        <mxCell id="BN8fjITRdAaJ6UBTvMnP-161" value="&lt;div&gt;montant ACT &amp;gt;0 ?&lt;/div&gt;" style="rounded=0;whiteSpace=wrap;html=1;" vertex="1" parent="1">
          <mxGeometry x="-170" y="352.2" width="120" height="50" as="geometry" />
        </mxCell>
        <mxCell id="BN8fjITRdAaJ6UBTvMnP-162" value="" style="endArrow=classic;html=1;rounded=0;exitX=0.75;exitY=1;exitDx=0;exitDy=0;entryX=0.5;entryY=0;entryDx=0;entryDy=0;" edge="1" parent="1" source="BN8fjITRdAaJ6UBTvMnP-161" target="BN8fjITRdAaJ6UBTvMnP-228">
          <mxGeometry width="50" height="50" relative="1" as="geometry">
            <mxPoint x="-11" y="429.99999999999994" as="sourcePoint" />
            <mxPoint x="-10" y="500" as="targetPoint" />
          </mxGeometry>
        </mxCell>
        <mxCell id="BN8fjITRdAaJ6UBTvMnP-163" value="" style="endArrow=classic;html=1;rounded=0;exitX=0.25;exitY=1;exitDx=0;exitDy=0;entryX=0.5;entryY=0;entryDx=0;entryDy=0;" edge="1" parent="1" source="BN8fjITRdAaJ6UBTvMnP-161" target="BN8fjITRdAaJ6UBTvMnP-230">
          <mxGeometry width="50" height="50" relative="1" as="geometry">
            <mxPoint x="-121" y="402.2" as="sourcePoint" />
            <mxPoint x="-180" y="509.99999999999994" as="targetPoint" />
          </mxGeometry>
        </mxCell>
        <mxCell id="BN8fjITRdAaJ6UBTvMnP-164" value="" style="endArrow=classic;html=1;rounded=0;exitX=0.25;exitY=1;exitDx=0;exitDy=0;entryX=0.75;entryY=0;entryDx=0;entryDy=0;" edge="1" parent="1" source="BN8fjITRdAaJ6UBTvMnP-165" target="BN8fjITRdAaJ6UBTvMnP-161">
          <mxGeometry width="50" height="50" relative="1" as="geometry">
            <mxPoint x="10" y="282.2" as="sourcePoint" />
            <mxPoint x="-30" y="390.2" as="targetPoint" />
          </mxGeometry>
        </mxCell>
        <mxCell id="BN8fjITRdAaJ6UBTvMnP-170" value="montant ADH &amp;gt;0 ?" style="rounded=0;whiteSpace=wrap;html=1;" vertex="1" parent="1">
          <mxGeometry x="-2260.6400000000003" y="280" width="120" height="50" as="geometry" />
        </mxCell>
        <mxCell id="BN8fjITRdAaJ6UBTvMnP-171" value="&lt;div&gt;montant ACT &amp;gt;0 ?&lt;/div&gt;" style="rounded=0;whiteSpace=wrap;html=1;" vertex="1" parent="1">
          <mxGeometry x="-2000.0000000000002" y="400" width="120" height="50" as="geometry" />
        </mxCell>
        <mxCell id="BN8fjITRdAaJ6UBTvMnP-172" value="" style="endArrow=classic;html=1;rounded=0;exitX=0.75;exitY=1;exitDx=0;exitDy=0;entryX=0.25;entryY=0;entryDx=0;entryDy=0;" edge="1" parent="1" source="BN8fjITRdAaJ6UBTvMnP-170" target="BN8fjITRdAaJ6UBTvMnP-171">
          <mxGeometry width="50" height="50" relative="1" as="geometry">
            <mxPoint x="-2480.6400000000003" y="390" as="sourcePoint" />
            <mxPoint x="-2430.6400000000003" y="340" as="targetPoint" />
          </mxGeometry>
        </mxCell>
        <mxCell id="BN8fjITRdAaJ6UBTvMnP-173" value="" style="endArrow=classic;html=1;rounded=0;exitX=0.75;exitY=1;exitDx=0;exitDy=0;entryX=0.5;entryY=0;entryDx=0;entryDy=0;" edge="1" parent="1" source="BN8fjITRdAaJ6UBTvMnP-171" target="BN8fjITRdAaJ6UBTvMnP-248">
          <mxGeometry width="50" height="50" relative="1" as="geometry">
            <mxPoint x="-2180.6400000000003" y="390" as="sourcePoint" />
            <mxPoint x="-1890" y="570" as="targetPoint" />
          </mxGeometry>
        </mxCell>
        <mxCell id="BN8fjITRdAaJ6UBTvMnP-174" value="montant ADH &amp;gt;0 ?" style="rounded=0;whiteSpace=wrap;html=1;" vertex="1" parent="1">
          <mxGeometry x="-2920" y="280" width="120" height="50" as="geometry" />
        </mxCell>
        <mxCell id="BN8fjITRdAaJ6UBTvMnP-175" value="&lt;div&gt;montant ACT &amp;gt;0 ?&lt;/div&gt;" style="rounded=0;whiteSpace=wrap;html=1;" vertex="1" parent="1">
          <mxGeometry x="-2790" y="399.99999999999994" width="120" height="50" as="geometry" />
        </mxCell>
        <mxCell id="BN8fjITRdAaJ6UBTvMnP-176" value="" style="endArrow=classic;html=1;rounded=0;exitX=0.75;exitY=1;exitDx=0;exitDy=0;entryX=0.25;entryY=0;entryDx=0;entryDy=0;" edge="1" parent="1" source="BN8fjITRdAaJ6UBTvMnP-174" target="BN8fjITRdAaJ6UBTvMnP-175">
          <mxGeometry width="50" height="50" relative="1" as="geometry">
            <mxPoint x="-2971" y="477.79999999999995" as="sourcePoint" />
            <mxPoint x="-2921" y="427.79999999999995" as="targetPoint" />
          </mxGeometry>
        </mxCell>
        <mxCell id="BN8fjITRdAaJ6UBTvMnP-177" value="" style="endArrow=classic;html=1;rounded=0;exitX=0.75;exitY=1;exitDx=0;exitDy=0;entryX=0.25;entryY=0;entryDx=0;entryDy=0;" edge="1" parent="1" source="BN8fjITRdAaJ6UBTvMnP-175" target="BN8fjITRdAaJ6UBTvMnP-256">
          <mxGeometry width="50" height="50" relative="1" as="geometry">
            <mxPoint x="-2660.0000000000005" y="437.79999999999995" as="sourcePoint" />
            <mxPoint x="-2570" y="527.8" as="targetPoint" />
          </mxGeometry>
        </mxCell>
        <mxCell id="BN8fjITRdAaJ6UBTvMnP-178" value="" style="endArrow=classic;html=1;rounded=0;exitX=0.25;exitY=1;exitDx=0;exitDy=0;entryX=0.75;entryY=0;entryDx=0;entryDy=0;" edge="1" parent="1" source="BN8fjITRdAaJ6UBTvMnP-170" target="BN8fjITRdAaJ6UBTvMnP-179">
          <mxGeometry width="50" height="50" relative="1" as="geometry">
            <mxPoint x="-2280" y="427.79999999999995" as="sourcePoint" />
            <mxPoint x="-2320" y="367.79999999999995" as="targetPoint" />
          </mxGeometry>
        </mxCell>
        <mxCell id="BN8fjITRdAaJ6UBTvMnP-179" value="&lt;div&gt;montant ACT &amp;gt;0 ?&lt;/div&gt;" style="rounded=0;whiteSpace=wrap;html=1;" vertex="1" parent="1">
          <mxGeometry x="-2390" y="417.8" width="120" height="50" as="geometry" />
        </mxCell>
        <mxCell id="BN8fjITRdAaJ6UBTvMnP-180" value="" style="endArrow=classic;html=1;rounded=0;exitX=0.75;exitY=1;exitDx=0;exitDy=0;entryX=0.25;entryY=0;entryDx=0;entryDy=0;" edge="1" parent="1" source="BN8fjITRdAaJ6UBTvMnP-179" target="BN8fjITRdAaJ6UBTvMnP-252">
          <mxGeometry width="50" height="50" relative="1" as="geometry">
            <mxPoint x="-2320" y="450" as="sourcePoint" />
            <mxPoint x="-2200" y="568" as="targetPoint" />
          </mxGeometry>
        </mxCell>
        <mxCell id="BN8fjITRdAaJ6UBTvMnP-181" value="" style="endArrow=classic;html=1;rounded=0;exitX=0.25;exitY=1;exitDx=0;exitDy=0;entryX=0.25;entryY=0;entryDx=0;entryDy=0;" edge="1" parent="1" source="BN8fjITRdAaJ6UBTvMnP-171" target="BN8fjITRdAaJ6UBTvMnP-250">
          <mxGeometry width="50" height="50" relative="1" as="geometry">
            <mxPoint x="-2140" y="517.8" as="sourcePoint" />
            <mxPoint x="-2080" y="557.8" as="targetPoint" />
          </mxGeometry>
        </mxCell>
        <mxCell id="BN8fjITRdAaJ6UBTvMnP-182" value="" style="endArrow=classic;html=1;rounded=0;exitX=0.25;exitY=1;exitDx=0;exitDy=0;entryX=0.25;entryY=0;entryDx=0;entryDy=0;" edge="1" parent="1" source="BN8fjITRdAaJ6UBTvMnP-179" target="BN8fjITRdAaJ6UBTvMnP-254">
          <mxGeometry width="50" height="50" relative="1" as="geometry">
            <mxPoint x="-2351" y="450" as="sourcePoint" />
            <mxPoint x="-2420" y="557.8" as="targetPoint" />
          </mxGeometry>
        </mxCell>
        <mxCell id="BN8fjITRdAaJ6UBTvMnP-183" value="" style="endArrow=classic;html=1;rounded=0;exitX=0.25;exitY=1;exitDx=0;exitDy=0;entryX=0.5;entryY=0;entryDx=0;entryDy=0;" edge="1" parent="1" source="BN8fjITRdAaJ6UBTvMnP-175" target="BN8fjITRdAaJ6UBTvMnP-258">
          <mxGeometry width="50" height="50" relative="1" as="geometry">
            <mxPoint x="-2781" y="450" as="sourcePoint" />
            <mxPoint x="-2750" y="527.8" as="targetPoint" />
          </mxGeometry>
        </mxCell>
        <mxCell id="BN8fjITRdAaJ6UBTvMnP-184" value="&lt;div&gt;montant ACT &amp;gt;0 ?&lt;/div&gt;" style="rounded=0;whiteSpace=wrap;html=1;" vertex="1" parent="1">
          <mxGeometry x="-3080" y="400" width="120" height="50" as="geometry" />
        </mxCell>
        <mxCell id="BN8fjITRdAaJ6UBTvMnP-185" value="" style="endArrow=classic;html=1;rounded=0;exitX=0.75;exitY=1;exitDx=0;exitDy=0;entryX=0.5;entryY=0;entryDx=0;entryDy=0;" edge="1" parent="1" source="BN8fjITRdAaJ6UBTvMnP-184" target="BN8fjITRdAaJ6UBTvMnP-260">
          <mxGeometry width="50" height="50" relative="1" as="geometry">
            <mxPoint x="-2921" y="477.79999999999995" as="sourcePoint" />
            <mxPoint x="-2920" y="547.8" as="targetPoint" />
          </mxGeometry>
        </mxCell>
        <mxCell id="BN8fjITRdAaJ6UBTvMnP-186" value="" style="endArrow=classic;html=1;rounded=0;exitX=0.25;exitY=1;exitDx=0;exitDy=0;entryX=0.75;entryY=0;entryDx=0;entryDy=0;" edge="1" parent="1" source="BN8fjITRdAaJ6UBTvMnP-184" target="BN8fjITRdAaJ6UBTvMnP-262">
          <mxGeometry width="50" height="50" relative="1" as="geometry">
            <mxPoint x="-3031" y="450" as="sourcePoint" />
            <mxPoint x="-3090" y="557.8" as="targetPoint" />
          </mxGeometry>
        </mxCell>
        <mxCell id="BN8fjITRdAaJ6UBTvMnP-187" value="" style="endArrow=classic;html=1;rounded=0;exitX=0.25;exitY=1;exitDx=0;exitDy=0;entryX=0.75;entryY=0;entryDx=0;entryDy=0;" edge="1" parent="1" source="BN8fjITRdAaJ6UBTvMnP-174" target="BN8fjITRdAaJ6UBTvMnP-184">
          <mxGeometry width="50" height="50" relative="1" as="geometry">
            <mxPoint x="-2900" y="330" as="sourcePoint" />
            <mxPoint x="-2940" y="438" as="targetPoint" />
          </mxGeometry>
        </mxCell>
        <mxCell id="BN8fjITRdAaJ6UBTvMnP-190" value="" style="endArrow=classic;html=1;rounded=0;exitX=1;exitY=1;exitDx=0;exitDy=0;entryX=0;entryY=0;entryDx=0;entryDy=0;" edge="1" parent="1" source="BN8fjITRdAaJ6UBTvMnP-13" target="BN8fjITRdAaJ6UBTvMnP-170">
          <mxGeometry width="50" height="50" relative="1" as="geometry">
            <mxPoint x="-2390" y="370" as="sourcePoint" />
            <mxPoint x="-2340" y="320" as="targetPoint" />
          </mxGeometry>
        </mxCell>
        <mxCell id="BN8fjITRdAaJ6UBTvMnP-191" value="" style="endArrow=classic;html=1;rounded=0;exitX=0;exitY=1;exitDx=0;exitDy=0;entryX=1;entryY=0;entryDx=0;entryDy=0;" edge="1" parent="1" source="BN8fjITRdAaJ6UBTvMnP-13" target="BN8fjITRdAaJ6UBTvMnP-174">
          <mxGeometry width="50" height="50" relative="1" as="geometry">
            <mxPoint x="-2390" y="370" as="sourcePoint" />
            <mxPoint x="-2340" y="320" as="targetPoint" />
          </mxGeometry>
        </mxCell>
        <mxCell id="BN8fjITRdAaJ6UBTvMnP-194" value="montant ADH &amp;gt;0 ?" style="rounded=0;whiteSpace=wrap;html=1;" vertex="1" parent="1">
          <mxGeometry x="-800.0000000000001" y="210" width="120" height="50" as="geometry" />
        </mxCell>
        <mxCell id="BN8fjITRdAaJ6UBTvMnP-195" value="&lt;div&gt;montant ACT &amp;gt;0 ?&lt;/div&gt;" style="rounded=0;whiteSpace=wrap;html=1;" vertex="1" parent="1">
          <mxGeometry x="-540.0000000000001" y="317.8" width="120" height="50" as="geometry" />
        </mxCell>
        <mxCell id="BN8fjITRdAaJ6UBTvMnP-196" value="" style="endArrow=classic;html=1;rounded=0;exitX=0.75;exitY=1;exitDx=0;exitDy=0;entryX=0.25;entryY=0;entryDx=0;entryDy=0;" edge="1" parent="1" source="BN8fjITRdAaJ6UBTvMnP-194" target="BN8fjITRdAaJ6UBTvMnP-195">
          <mxGeometry width="50" height="50" relative="1" as="geometry">
            <mxPoint x="-1070.64" y="477.8" as="sourcePoint" />
            <mxPoint x="-1020.6400000000001" y="427.8" as="targetPoint" />
          </mxGeometry>
        </mxCell>
        <mxCell id="BN8fjITRdAaJ6UBTvMnP-197" value="" style="endArrow=classic;html=1;rounded=0;exitX=0.75;exitY=1;exitDx=0;exitDy=0;entryX=0.5;entryY=0;entryDx=0;entryDy=0;" edge="1" parent="1" source="BN8fjITRdAaJ6UBTvMnP-195" target="BN8fjITRdAaJ6UBTvMnP-232">
          <mxGeometry width="50" height="50" relative="1" as="geometry">
            <mxPoint x="-770.6400000000001" y="477.8" as="sourcePoint" />
            <mxPoint x="-340.6400000000001" y="657.8" as="targetPoint" />
          </mxGeometry>
        </mxCell>
        <mxCell id="BN8fjITRdAaJ6UBTvMnP-198" value="montant ADH &amp;gt;0 ?" style="rounded=0;whiteSpace=wrap;html=1;" vertex="1" parent="1">
          <mxGeometry x="-1420" y="210" width="120" height="50" as="geometry" />
        </mxCell>
        <mxCell id="BN8fjITRdAaJ6UBTvMnP-199" value="&lt;div&gt;montant ACT &amp;gt;0 ?&lt;/div&gt;" style="rounded=0;whiteSpace=wrap;html=1;" vertex="1" parent="1">
          <mxGeometry x="-1300" y="327.79999999999995" width="120" height="50" as="geometry" />
        </mxCell>
        <mxCell id="BN8fjITRdAaJ6UBTvMnP-200" value="" style="endArrow=classic;html=1;rounded=0;exitX=0.75;exitY=1;exitDx=0;exitDy=0;entryX=0.25;entryY=0;entryDx=0;entryDy=0;" edge="1" parent="1" source="BN8fjITRdAaJ6UBTvMnP-198" target="BN8fjITRdAaJ6UBTvMnP-199">
          <mxGeometry width="50" height="50" relative="1" as="geometry">
            <mxPoint x="-1571" y="565.5999999999999" as="sourcePoint" />
            <mxPoint x="-1521" y="515.5999999999999" as="targetPoint" />
          </mxGeometry>
        </mxCell>
        <mxCell id="BN8fjITRdAaJ6UBTvMnP-201" value="" style="endArrow=classic;html=1;rounded=0;exitX=0.75;exitY=1;exitDx=0;exitDy=0;entryX=0.5;entryY=0;entryDx=0;entryDy=0;" edge="1" parent="1" source="BN8fjITRdAaJ6UBTvMnP-199" target="BN8fjITRdAaJ6UBTvMnP-240">
          <mxGeometry width="50" height="50" relative="1" as="geometry">
            <mxPoint x="-1260.0000000000005" y="525.5999999999999" as="sourcePoint" />
            <mxPoint x="-1130" y="500" as="targetPoint" />
          </mxGeometry>
        </mxCell>
        <mxCell id="BN8fjITRdAaJ6UBTvMnP-202" value="" style="endArrow=classic;html=1;rounded=0;exitX=0.25;exitY=1;exitDx=0;exitDy=0;entryX=0.75;entryY=0;entryDx=0;entryDy=0;" edge="1" parent="1" source="BN8fjITRdAaJ6UBTvMnP-194" target="BN8fjITRdAaJ6UBTvMnP-203">
          <mxGeometry width="50" height="50" relative="1" as="geometry">
            <mxPoint x="-870" y="515.5999999999999" as="sourcePoint" />
            <mxPoint x="-910" y="455.59999999999997" as="targetPoint" />
          </mxGeometry>
        </mxCell>
        <mxCell id="BN8fjITRdAaJ6UBTvMnP-203" value="&lt;div&gt;montant ACT &amp;gt;0 ?&lt;/div&gt;" style="rounded=0;whiteSpace=wrap;html=1;" vertex="1" parent="1">
          <mxGeometry x="-900" y="322.20000000000005" width="120" height="50" as="geometry" />
        </mxCell>
        <mxCell id="BN8fjITRdAaJ6UBTvMnP-204" value="" style="endArrow=classic;html=1;rounded=0;exitX=0.75;exitY=1;exitDx=0;exitDy=0;entryX=0.5;entryY=0;entryDx=0;entryDy=0;" edge="1" parent="1" source="BN8fjITRdAaJ6UBTvMnP-203" target="BN8fjITRdAaJ6UBTvMnP-236">
          <mxGeometry width="50" height="50" relative="1" as="geometry">
            <mxPoint x="-910" y="537.8" as="sourcePoint" />
            <mxPoint x="-740" y="560" as="targetPoint" />
          </mxGeometry>
        </mxCell>
        <mxCell id="BN8fjITRdAaJ6UBTvMnP-205" value="" style="endArrow=classic;html=1;rounded=0;exitX=0.25;exitY=1;exitDx=0;exitDy=0;entryX=0.5;entryY=0;entryDx=0;entryDy=0;" edge="1" parent="1" source="BN8fjITRdAaJ6UBTvMnP-195" target="BN8fjITRdAaJ6UBTvMnP-234">
          <mxGeometry width="50" height="50" relative="1" as="geometry">
            <mxPoint x="-730" y="605.5999999999999" as="sourcePoint" />
            <mxPoint x="-670" y="645.5999999999999" as="targetPoint" />
          </mxGeometry>
        </mxCell>
        <mxCell id="BN8fjITRdAaJ6UBTvMnP-206" value="" style="endArrow=classic;html=1;rounded=0;exitX=0.25;exitY=1;exitDx=0;exitDy=0;entryX=0.5;entryY=0;entryDx=0;entryDy=0;" edge="1" parent="1" source="BN8fjITRdAaJ6UBTvMnP-203" target="BN8fjITRdAaJ6UBTvMnP-238">
          <mxGeometry width="50" height="50" relative="1" as="geometry">
            <mxPoint x="-941" y="537.8" as="sourcePoint" />
            <mxPoint x="-890" y="550" as="targetPoint" />
          </mxGeometry>
        </mxCell>
        <mxCell id="BN8fjITRdAaJ6UBTvMnP-207" value="" style="endArrow=classic;html=1;rounded=0;exitX=0.25;exitY=1;exitDx=0;exitDy=0;entryX=0.25;entryY=0;entryDx=0;entryDy=0;" edge="1" parent="1" source="BN8fjITRdAaJ6UBTvMnP-199" target="BN8fjITRdAaJ6UBTvMnP-242">
          <mxGeometry width="50" height="50" relative="1" as="geometry">
            <mxPoint x="-1381" y="537.8" as="sourcePoint" />
            <mxPoint x="-1300" y="480" as="targetPoint" />
          </mxGeometry>
        </mxCell>
        <mxCell id="BN8fjITRdAaJ6UBTvMnP-208" value="&lt;div&gt;montant ACT &amp;gt;0 ?&lt;/div&gt;" style="rounded=0;whiteSpace=wrap;html=1;" vertex="1" parent="1">
          <mxGeometry x="-1654" y="340" width="120" height="50" as="geometry" />
        </mxCell>
        <mxCell id="BN8fjITRdAaJ6UBTvMnP-209" value="" style="endArrow=classic;html=1;rounded=0;exitX=0.75;exitY=1;exitDx=0;exitDy=0;entryX=0.5;entryY=0;entryDx=0;entryDy=0;" edge="1" parent="1" source="BN8fjITRdAaJ6UBTvMnP-208" target="BN8fjITRdAaJ6UBTvMnP-244">
          <mxGeometry width="50" height="50" relative="1" as="geometry">
            <mxPoint x="-1521" y="565.5999999999999" as="sourcePoint" />
            <mxPoint x="-1470" y="530" as="targetPoint" />
          </mxGeometry>
        </mxCell>
        <mxCell id="BN8fjITRdAaJ6UBTvMnP-210" value="" style="endArrow=classic;html=1;rounded=0;exitX=0.25;exitY=1;exitDx=0;exitDy=0;entryX=0.25;entryY=0;entryDx=0;entryDy=0;" edge="1" parent="1" source="BN8fjITRdAaJ6UBTvMnP-208" target="BN8fjITRdAaJ6UBTvMnP-246">
          <mxGeometry width="50" height="50" relative="1" as="geometry">
            <mxPoint x="-1631" y="537.8" as="sourcePoint" />
            <mxPoint x="-1650" y="540" as="targetPoint" />
          </mxGeometry>
        </mxCell>
        <mxCell id="BN8fjITRdAaJ6UBTvMnP-211" value="" style="endArrow=classic;html=1;rounded=0;exitX=0.25;exitY=1;exitDx=0;exitDy=0;entryX=0.75;entryY=0;entryDx=0;entryDy=0;" edge="1" parent="1" source="BN8fjITRdAaJ6UBTvMnP-198" target="BN8fjITRdAaJ6UBTvMnP-208">
          <mxGeometry width="50" height="50" relative="1" as="geometry">
            <mxPoint x="-1500" y="417.8" as="sourcePoint" />
            <mxPoint x="-1540" y="525.8" as="targetPoint" />
          </mxGeometry>
        </mxCell>
        <mxCell id="BN8fjITRdAaJ6UBTvMnP-214" value="" style="endArrow=classic;html=1;rounded=0;exitX=1;exitY=1;exitDx=0;exitDy=0;entryX=0;entryY=0;entryDx=0;entryDy=0;" edge="1" parent="1" source="BN8fjITRdAaJ6UBTvMnP-18" target="BN8fjITRdAaJ6UBTvMnP-194">
          <mxGeometry width="50" height="50" relative="1" as="geometry">
            <mxPoint x="-700" y="300" as="sourcePoint" />
            <mxPoint x="-520" y="180" as="targetPoint" />
          </mxGeometry>
        </mxCell>
        <mxCell id="BN8fjITRdAaJ6UBTvMnP-215" value="" style="endArrow=classic;html=1;rounded=0;exitX=0;exitY=1;exitDx=0;exitDy=0;entryX=1;entryY=0;entryDx=0;entryDy=0;" edge="1" parent="1" source="BN8fjITRdAaJ6UBTvMnP-18" target="BN8fjITRdAaJ6UBTvMnP-198">
          <mxGeometry width="50" height="50" relative="1" as="geometry">
            <mxPoint x="-1030" y="350" as="sourcePoint" />
            <mxPoint x="-821" y="458" as="targetPoint" />
          </mxGeometry>
        </mxCell>
        <mxCell id="BN8fjITRdAaJ6UBTvMnP-216" value="&lt;div&gt;&lt;font style=&quot;font-size: 18px;&quot;&gt;C3&lt;/font&gt;&lt;/div&gt;" style="html=1;whiteSpace=wrap;container=1;recursiveResize=0;collapsible=0;" vertex="1" parent="1">
          <mxGeometry x="1030" y="560" width="160" height="70" as="geometry" />
        </mxCell>
        <mxCell id="BN8fjITRdAaJ6UBTvMnP-217" value="" style="triangle;html=1;whiteSpace=wrap;" vertex="1" parent="BN8fjITRdAaJ6UBTvMnP-216">
          <mxGeometry x="20" y="20" width="20" height="30" as="geometry" />
        </mxCell>
        <mxCell id="BN8fjITRdAaJ6UBTvMnP-218" value="C2" style="html=1;whiteSpace=wrap;container=1;recursiveResize=0;collapsible=0;" vertex="1" parent="1">
          <mxGeometry x="840" y="560" width="160" height="70" as="geometry" />
        </mxCell>
        <mxCell id="BN8fjITRdAaJ6UBTvMnP-219" value="" style="triangle;html=1;whiteSpace=wrap;" vertex="1" parent="BN8fjITRdAaJ6UBTvMnP-218">
          <mxGeometry x="20" y="20" width="20" height="30" as="geometry" />
        </mxCell>
        <mxCell id="BN8fjITRdAaJ6UBTvMnP-220" value="C2bis" style="html=1;whiteSpace=wrap;container=1;recursiveResize=0;collapsible=0;" vertex="1" parent="1">
          <mxGeometry x="659.36" y="560" width="160" height="70" as="geometry" />
        </mxCell>
        <mxCell id="BN8fjITRdAaJ6UBTvMnP-221" value="" style="triangle;html=1;whiteSpace=wrap;" vertex="1" parent="BN8fjITRdAaJ6UBTvMnP-220">
          <mxGeometry x="20" y="20" width="20" height="30" as="geometry" />
        </mxCell>
        <mxCell id="BN8fjITRdAaJ6UBTvMnP-222" value="C4" style="html=1;whiteSpace=wrap;container=1;recursiveResize=0;collapsible=0;" vertex="1" parent="1">
          <mxGeometry x="480" y="560" width="160" height="70" as="geometry" />
        </mxCell>
        <mxCell id="BN8fjITRdAaJ6UBTvMnP-223" value="" style="triangle;html=1;whiteSpace=wrap;" vertex="1" parent="BN8fjITRdAaJ6UBTvMnP-222">
          <mxGeometry x="20" y="20" width="20" height="30" as="geometry" />
        </mxCell>
        <mxCell id="BN8fjITRdAaJ6UBTvMnP-224" value="C5" style="html=1;whiteSpace=wrap;container=1;recursiveResize=0;collapsible=0;" vertex="1" parent="1">
          <mxGeometry x="300" y="560" width="160" height="70" as="geometry" />
        </mxCell>
        <mxCell id="BN8fjITRdAaJ6UBTvMnP-225" value="" style="triangle;html=1;whiteSpace=wrap;" vertex="1" parent="BN8fjITRdAaJ6UBTvMnP-224">
          <mxGeometry x="20" y="20" width="20" height="30" as="geometry" />
        </mxCell>
        <mxCell id="BN8fjITRdAaJ6UBTvMnP-226" value="C5" style="html=1;whiteSpace=wrap;container=1;recursiveResize=0;collapsible=0;" vertex="1" parent="1">
          <mxGeometry x="120" y="560" width="160" height="70" as="geometry" />
        </mxCell>
        <mxCell id="BN8fjITRdAaJ6UBTvMnP-227" value="" style="triangle;html=1;whiteSpace=wrap;" vertex="1" parent="BN8fjITRdAaJ6UBTvMnP-226">
          <mxGeometry x="20" y="20" width="20" height="30" as="geometry" />
        </mxCell>
        <mxCell id="BN8fjITRdAaJ6UBTvMnP-228" value="C5" style="html=1;whiteSpace=wrap;container=1;recursiveResize=0;collapsible=0;" vertex="1" parent="1">
          <mxGeometry x="-60" y="560" width="160" height="70" as="geometry" />
        </mxCell>
        <mxCell id="BN8fjITRdAaJ6UBTvMnP-229" value="" style="triangle;html=1;whiteSpace=wrap;" vertex="1" parent="BN8fjITRdAaJ6UBTvMnP-228">
          <mxGeometry x="20" y="20" width="20" height="30" as="geometry" />
        </mxCell>
        <mxCell id="BN8fjITRdAaJ6UBTvMnP-230" value="C5" style="html=1;whiteSpace=wrap;container=1;recursiveResize=0;collapsible=0;" vertex="1" parent="1">
          <mxGeometry x="-240" y="560" width="160" height="70" as="geometry" />
        </mxCell>
        <mxCell id="BN8fjITRdAaJ6UBTvMnP-231" value="" style="triangle;html=1;whiteSpace=wrap;" vertex="1" parent="BN8fjITRdAaJ6UBTvMnP-230">
          <mxGeometry x="20" y="20" width="20" height="30" as="geometry" />
        </mxCell>
        <mxCell id="BN8fjITRdAaJ6UBTvMnP-232" value="C1" style="html=1;whiteSpace=wrap;container=1;recursiveResize=0;collapsible=0;" vertex="1" parent="1">
          <mxGeometry x="-460" y="560" width="160" height="70" as="geometry" />
        </mxCell>
        <mxCell id="BN8fjITRdAaJ6UBTvMnP-233" value="" style="triangle;html=1;whiteSpace=wrap;" vertex="1" parent="BN8fjITRdAaJ6UBTvMnP-232">
          <mxGeometry x="20" y="20" width="20" height="30" as="geometry" />
        </mxCell>
        <mxCell id="BN8fjITRdAaJ6UBTvMnP-234" value="C3/C2" style="html=1;whiteSpace=wrap;container=1;recursiveResize=0;collapsible=0;" vertex="1" parent="1">
          <mxGeometry x="-640" y="560" width="160" height="70" as="geometry" />
        </mxCell>
        <mxCell id="BN8fjITRdAaJ6UBTvMnP-235" value="" style="triangle;html=1;whiteSpace=wrap;" vertex="1" parent="BN8fjITRdAaJ6UBTvMnP-234">
          <mxGeometry x="20" y="20" width="20" height="30" as="geometry" />
        </mxCell>
        <mxCell id="BN8fjITRdAaJ6UBTvMnP-236" value="C2bis" style="html=1;whiteSpace=wrap;container=1;recursiveResize=0;collapsible=0;" vertex="1" parent="1">
          <mxGeometry x="-820" y="560" width="160" height="70" as="geometry" />
        </mxCell>
        <mxCell id="BN8fjITRdAaJ6UBTvMnP-237" value="" style="triangle;html=1;whiteSpace=wrap;" vertex="1" parent="BN8fjITRdAaJ6UBTvMnP-236">
          <mxGeometry x="20" y="20" width="20" height="30" as="geometry" />
        </mxCell>
        <mxCell id="BN8fjITRdAaJ6UBTvMnP-238" value="C5" style="html=1;whiteSpace=wrap;container=1;recursiveResize=0;collapsible=0;" vertex="1" parent="1">
          <mxGeometry x="-1000" y="560" width="160" height="70" as="geometry" />
        </mxCell>
        <mxCell id="BN8fjITRdAaJ6UBTvMnP-239" value="" style="triangle;html=1;whiteSpace=wrap;" vertex="1" parent="BN8fjITRdAaJ6UBTvMnP-238">
          <mxGeometry x="20" y="20" width="20" height="30" as="geometry" />
        </mxCell>
        <mxCell id="BN8fjITRdAaJ6UBTvMnP-240" value="Label" style="html=1;whiteSpace=wrap;container=1;recursiveResize=0;collapsible=0;" vertex="1" parent="1">
          <mxGeometry x="-1180" y="560" width="160" height="70" as="geometry" />
        </mxCell>
        <mxCell id="BN8fjITRdAaJ6UBTvMnP-241" value="" style="triangle;html=1;whiteSpace=wrap;" vertex="1" parent="BN8fjITRdAaJ6UBTvMnP-240">
          <mxGeometry x="20" y="20" width="20" height="30" as="geometry" />
        </mxCell>
        <mxCell id="BN8fjITRdAaJ6UBTvMnP-242" value="Label" style="html=1;whiteSpace=wrap;container=1;recursiveResize=0;collapsible=0;" vertex="1" parent="1">
          <mxGeometry x="-1360" y="560" width="160" height="70" as="geometry" />
        </mxCell>
        <mxCell id="BN8fjITRdAaJ6UBTvMnP-243" value="" style="triangle;html=1;whiteSpace=wrap;" vertex="1" parent="BN8fjITRdAaJ6UBTvMnP-242">
          <mxGeometry x="20" y="20" width="20" height="30" as="geometry" />
        </mxCell>
        <mxCell id="BN8fjITRdAaJ6UBTvMnP-244" value="Label" style="html=1;whiteSpace=wrap;container=1;recursiveResize=0;collapsible=0;" vertex="1" parent="1">
          <mxGeometry x="-1540" y="560" width="160" height="70" as="geometry" />
        </mxCell>
        <mxCell id="BN8fjITRdAaJ6UBTvMnP-245" value="" style="triangle;html=1;whiteSpace=wrap;" vertex="1" parent="BN8fjITRdAaJ6UBTvMnP-244">
          <mxGeometry x="20" y="20" width="20" height="30" as="geometry" />
        </mxCell>
        <mxCell id="BN8fjITRdAaJ6UBTvMnP-246" value="Label" style="html=1;whiteSpace=wrap;container=1;recursiveResize=0;collapsible=0;" vertex="1" parent="1">
          <mxGeometry x="-1720" y="560" width="160" height="70" as="geometry" />
        </mxCell>
        <mxCell id="BN8fjITRdAaJ6UBTvMnP-247" value="" style="triangle;html=1;whiteSpace=wrap;" vertex="1" parent="BN8fjITRdAaJ6UBTvMnP-246">
          <mxGeometry x="20" y="20" width="20" height="30" as="geometry" />
        </mxCell>
        <mxCell id="BN8fjITRdAaJ6UBTvMnP-248" value="Label" style="html=1;whiteSpace=wrap;container=1;recursiveResize=0;collapsible=0;" vertex="1" parent="1">
          <mxGeometry x="-1910" y="560" width="160" height="70" as="geometry" />
        </mxCell>
        <mxCell id="BN8fjITRdAaJ6UBTvMnP-249" value="" style="triangle;html=1;whiteSpace=wrap;" vertex="1" parent="BN8fjITRdAaJ6UBTvMnP-248">
          <mxGeometry x="20" y="20" width="20" height="30" as="geometry" />
        </mxCell>
        <mxCell id="BN8fjITRdAaJ6UBTvMnP-250" value="Label" style="html=1;whiteSpace=wrap;container=1;recursiveResize=0;collapsible=0;" vertex="1" parent="1">
          <mxGeometry x="-2100" y="560" width="160" height="70" as="geometry" />
        </mxCell>
        <mxCell id="BN8fjITRdAaJ6UBTvMnP-251" value="" style="triangle;html=1;whiteSpace=wrap;" vertex="1" parent="BN8fjITRdAaJ6UBTvMnP-250">
          <mxGeometry x="20" y="20" width="20" height="30" as="geometry" />
        </mxCell>
        <mxCell id="BN8fjITRdAaJ6UBTvMnP-252" value="Label" style="html=1;whiteSpace=wrap;container=1;recursiveResize=0;collapsible=0;" vertex="1" parent="1">
          <mxGeometry x="-2300.64" y="560" width="160" height="70" as="geometry" />
        </mxCell>
        <mxCell id="BN8fjITRdAaJ6UBTvMnP-253" value="" style="triangle;html=1;whiteSpace=wrap;" vertex="1" parent="BN8fjITRdAaJ6UBTvMnP-252">
          <mxGeometry x="20" y="20" width="20" height="30" as="geometry" />
        </mxCell>
        <mxCell id="BN8fjITRdAaJ6UBTvMnP-254" value="Label" style="html=1;whiteSpace=wrap;container=1;recursiveResize=0;collapsible=0;" vertex="1" parent="1">
          <mxGeometry x="-2490" y="560" width="160" height="70" as="geometry" />
        </mxCell>
        <mxCell id="BN8fjITRdAaJ6UBTvMnP-255" value="" style="triangle;html=1;whiteSpace=wrap;" vertex="1" parent="BN8fjITRdAaJ6UBTvMnP-254">
          <mxGeometry x="20" y="20" width="20" height="30" as="geometry" />
        </mxCell>
        <mxCell id="BN8fjITRdAaJ6UBTvMnP-256" value="Label" style="html=1;whiteSpace=wrap;container=1;recursiveResize=0;collapsible=0;" vertex="1" parent="1">
          <mxGeometry x="-2690" y="560" width="160" height="70" as="geometry" />
        </mxCell>
        <mxCell id="BN8fjITRdAaJ6UBTvMnP-257" value="" style="triangle;html=1;whiteSpace=wrap;" vertex="1" parent="BN8fjITRdAaJ6UBTvMnP-256">
          <mxGeometry x="20" y="20" width="20" height="30" as="geometry" />
        </mxCell>
        <mxCell id="BN8fjITRdAaJ6UBTvMnP-258" value="Label" style="html=1;whiteSpace=wrap;container=1;recursiveResize=0;collapsible=0;" vertex="1" parent="1">
          <mxGeometry x="-2900" y="560" width="160" height="70" as="geometry" />
        </mxCell>
        <mxCell id="BN8fjITRdAaJ6UBTvMnP-259" value="" style="triangle;html=1;whiteSpace=wrap;" vertex="1" parent="BN8fjITRdAaJ6UBTvMnP-258">
          <mxGeometry x="20" y="20" width="20" height="30" as="geometry" />
        </mxCell>
        <mxCell id="BN8fjITRdAaJ6UBTvMnP-260" value="Label" style="html=1;whiteSpace=wrap;container=1;recursiveResize=0;collapsible=0;" vertex="1" parent="1">
          <mxGeometry x="-3100" y="560" width="160" height="70" as="geometry" />
        </mxCell>
        <mxCell id="BN8fjITRdAaJ6UBTvMnP-261" value="" style="triangle;html=1;whiteSpace=wrap;" vertex="1" parent="BN8fjITRdAaJ6UBTvMnP-260">
          <mxGeometry x="20" y="20" width="20" height="30" as="geometry" />
        </mxCell>
        <mxCell id="BN8fjITRdAaJ6UBTvMnP-262" value="Label" style="html=1;whiteSpace=wrap;container=1;recursiveResize=0;collapsible=0;" vertex="1" parent="1">
          <mxGeometry x="-3300" y="560" width="160" height="70" as="geometry" />
        </mxCell>
        <mxCell id="BN8fjITRdAaJ6UBTvMnP-263" value="" style="triangle;html=1;whiteSpace=wrap;" vertex="1" parent="BN8fjITRdAaJ6UBTvMnP-262">
          <mxGeometry x="20" y="20" width="20" height="30" as="geometry" />
        </mxCell>
        <mxCell id="BN8fjITRdAaJ6UBTvMnP-269" value="" style="endArrow=classic;html=1;rounded=0;exitX=1;exitY=1;exitDx=0;exitDy=0;entryX=0.25;entryY=0;entryDx=0;entryDy=0;" edge="1" parent="1" source="BN8fjITRdAaJ6UBTvMnP-1" target="BN8fjITRdAaJ6UBTvMnP-4">
          <mxGeometry width="50" height="50" relative="1" as="geometry">
            <mxPoint x="-620" y="-360" as="sourcePoint" />
            <mxPoint x="409" y="52" as="targetPoint" />
          </mxGeometry>
        </mxCell>
        <mxCell id="BN8fjITRdAaJ6UBTvMnP-4" value="&lt;font style=&quot;font-size: 20px;&quot;&gt;1&lt;/font&gt;" style="text;strokeColor=none;fillColor=none;align=center;verticalAlign=middle;spacingLeft=4;spacingRight=4;overflow=hidden;points=[[0,0.5],[1,0.5]];portConstraint=eastwest;rotatable=0;whiteSpace=wrap;html=1;" vertex="1" parent="1">
          <mxGeometry x="-453" y="-310" width="80" height="30" as="geometry" />
        </mxCell>
        <mxCell id="BN8fjITRdAaJ6UBTvMnP-270" value="" style="endArrow=classic;html=1;rounded=0;exitX=0;exitY=1;exitDx=0;exitDy=0;entryX=0.75;entryY=0;entryDx=0;entryDy=0;" edge="1" parent="1" source="BN8fjITRdAaJ6UBTvMnP-1" target="BN8fjITRdAaJ6UBTvMnP-5">
          <mxGeometry width="50" height="50" relative="1" as="geometry">
            <mxPoint x="-740" y="-360" as="sourcePoint" />
            <mxPoint x="-2010" y="2" as="targetPoint" />
            <Array as="points" />
          </mxGeometry>
        </mxCell>
        <mxCell id="BN8fjITRdAaJ6UBTvMnP-5" value="&lt;font style=&quot;font-size: 20px;&quot;&gt;2&lt;/font&gt;" style="text;strokeColor=none;fillColor=none;align=center;verticalAlign=middle;spacingLeft=4;spacingRight=4;overflow=hidden;points=[[0,0.5],[1,0.5]];portConstraint=eastwest;rotatable=0;whiteSpace=wrap;html=1;" vertex="1" parent="1">
          <mxGeometry x="-1050" y="-300" width="80" height="30" as="geometry" />
        </mxCell>
        <mxCell id="BN8fjITRdAaJ6UBTvMnP-271" value="" style="endArrow=classic;html=1;rounded=0;exitX=0.25;exitY=1;exitDx=0;exitDy=0;entryX=0.75;entryY=0;entryDx=0;entryDy=0;" edge="1" parent="1" source="BN8fjITRdAaJ6UBTvMnP-150" target="BN8fjITRdAaJ6UBTvMnP-165">
          <mxGeometry width="50" height="50" relative="1" as="geometry">
            <mxPoint x="20" y="282" as="sourcePoint" />
            <mxPoint x="-80" y="352" as="targetPoint" />
          </mxGeometry>
        </mxCell>
        <mxCell id="BN8fjITRdAaJ6UBTvMnP-165" value="NON" style="text;strokeColor=none;fillColor=none;align=center;verticalAlign=middle;spacingLeft=4;spacingRight=4;overflow=hidden;points=[[0,0.5],[1,0.5]];portConstraint=eastwest;rotatable=0;whiteSpace=wrap;html=1;" vertex="1" parent="1">
          <mxGeometry x="-70" y="300" width="80" height="30" as="geometry" />
        </mxCell>
        <mxCell id="BN8fjITRdAaJ6UBTvMnP-272" value="" style="endArrow=classic;html=1;rounded=0;exitX=0.75;exitY=1;exitDx=0;exitDy=0;entryX=0.25;entryY=0;entryDx=0;entryDy=0;" edge="1" parent="1" source="BN8fjITRdAaJ6UBTvMnP-150" target="BN8fjITRdAaJ6UBTvMnP-166">
          <mxGeometry width="50" height="50" relative="1" as="geometry">
            <mxPoint x="80" y="282" as="sourcePoint" />
            <mxPoint x="240" y="378" as="targetPoint" />
          </mxGeometry>
        </mxCell>
        <mxCell id="BN8fjITRdAaJ6UBTvMnP-166" value="&lt;div&gt;OUI&lt;/div&gt;" style="text;strokeColor=none;fillColor=none;align=center;verticalAlign=middle;spacingLeft=4;spacingRight=4;overflow=hidden;points=[[0,0.5],[1,0.5]];portConstraint=eastwest;rotatable=0;whiteSpace=wrap;html=1;" vertex="1" parent="1">
          <mxGeometry x="120" y="307.8" width="80" height="30" as="geometry" />
        </mxCell>
        <mxCell id="BN8fjITRdAaJ6UBTvMnP-273" value="" style="endArrow=classic;html=1;rounded=0;exitX=0.25;exitY=1;exitDx=0;exitDy=0;entryX=0.75;entryY=0;entryDx=0;entryDy=0;" edge="1" parent="1" source="BN8fjITRdAaJ6UBTvMnP-106" target="BN8fjITRdAaJ6UBTvMnP-267">
          <mxGeometry width="50" height="50" relative="1" as="geometry">
            <mxPoint x="760" y="288" as="sourcePoint" />
            <mxPoint x="680" y="368" as="targetPoint" />
          </mxGeometry>
        </mxCell>
        <mxCell id="BN8fjITRdAaJ6UBTvMnP-267" value="NON" style="text;strokeColor=none;fillColor=none;align=center;verticalAlign=middle;spacingLeft=4;spacingRight=4;overflow=hidden;points=[[0,0.5],[1,0.5]];portConstraint=eastwest;rotatable=0;whiteSpace=wrap;html=1;" vertex="1" parent="1">
          <mxGeometry x="679.36" y="310" width="80" height="30" as="geometry" />
        </mxCell>
        <mxCell id="BN8fjITRdAaJ6UBTvMnP-274" value="" style="endArrow=classic;html=1;rounded=0;exitX=0.75;exitY=1;exitDx=0;exitDy=0;entryX=0.25;entryY=0;entryDx=0;entryDy=0;" edge="1" parent="1" source="BN8fjITRdAaJ6UBTvMnP-106" target="BN8fjITRdAaJ6UBTvMnP-266">
          <mxGeometry width="50" height="50" relative="1" as="geometry">
            <mxPoint x="820" y="288" as="sourcePoint" />
            <mxPoint x="970" y="368" as="targetPoint" />
          </mxGeometry>
        </mxCell>
        <mxCell id="BN8fjITRdAaJ6UBTvMnP-266" value="&lt;div&gt;OUI&lt;/div&gt;" style="text;strokeColor=none;fillColor=none;align=center;verticalAlign=middle;spacingLeft=4;spacingRight=4;overflow=hidden;points=[[0,0.5],[1,0.5]];portConstraint=eastwest;rotatable=0;whiteSpace=wrap;html=1;" vertex="1" parent="1">
          <mxGeometry x="860" y="310" width="80" height="30" as="geometry" />
        </mxCell>
        <mxCell id="BN8fjITRdAaJ6UBTvMnP-275" value="" style="endArrow=classic;html=1;rounded=0;exitX=0.75;exitY=1;exitDx=0;exitDy=0;entryX=0.5;entryY=0;entryDx=0;entryDy=0;" edge="1" parent="1" source="BN8fjITRdAaJ6UBTvMnP-6" target="BN8fjITRdAaJ6UBTvMnP-44">
          <mxGeometry width="50" height="50" relative="1" as="geometry">
            <mxPoint x="-2010" y="52" as="sourcePoint" />
            <mxPoint x="-1030" y="140" as="targetPoint" />
          </mxGeometry>
        </mxCell>
        <mxCell id="BN8fjITRdAaJ6UBTvMnP-44" value="&lt;div&gt;OUI&lt;/div&gt;" style="text;strokeColor=none;fillColor=none;align=center;verticalAlign=middle;spacingLeft=4;spacingRight=4;overflow=hidden;points=[[0,0.5],[1,0.5]];portConstraint=eastwest;rotatable=0;whiteSpace=wrap;html=1;" vertex="1" parent="1">
          <mxGeometry x="-1540" y="80" width="80" height="30" as="geometry" />
        </mxCell>
        <mxCell id="BN8fjITRdAaJ6UBTvMnP-276" value="" style="endArrow=classic;html=1;rounded=0;exitX=0.25;exitY=1;exitDx=0;exitDy=0;entryX=0.5;entryY=0;entryDx=0;entryDy=0;" edge="1" parent="1" source="BN8fjITRdAaJ6UBTvMnP-6" target="BN8fjITRdAaJ6UBTvMnP-12">
          <mxGeometry width="50" height="50" relative="1" as="geometry">
            <mxPoint x="-2070" y="52" as="sourcePoint" />
            <mxPoint x="-2510" y="180" as="targetPoint" />
            <Array as="points" />
          </mxGeometry>
        </mxCell>
        <mxCell id="BN8fjITRdAaJ6UBTvMnP-12" value="NON" style="text;strokeColor=none;fillColor=none;align=center;verticalAlign=middle;spacingLeft=4;spacingRight=4;overflow=hidden;points=[[0,0.5],[1,0.5]];portConstraint=eastwest;rotatable=0;whiteSpace=wrap;html=1;" vertex="1" parent="1">
          <mxGeometry x="-2290" y="90" width="80" height="30" as="geometry" />
        </mxCell>
        <mxCell id="BN8fjITRdAaJ6UBTvMnP-296" value="" style="group;arcSize=20;autosize=1;autosizeGrid=1;fixedWidth=0;" vertex="1" connectable="0" parent="1">
          <mxGeometry x="120" y="770" width="1510" height="1360" as="geometry" />
        </mxCell>
        <mxCell id="BN8fjITRdAaJ6UBTvMnP-303" value="" style="group" vertex="1" connectable="0" parent="BN8fjITRdAaJ6UBTvMnP-296">
          <mxGeometry width="1517.1264367816093" height="870" as="geometry" />
        </mxCell>
        <mxCell id="BN8fjITRdAaJ6UBTvMnP-277" value="&lt;font style=&quot;font-size: 20px;&quot;&gt;C3&lt;/font&gt;" style="swimlane;fontStyle=0;childLayout=stackLayout;horizontal=1;startSize=30;horizontalStack=0;resizeParent=1;resizeParentMax=0;resizeLast=0;collapsible=1;marginBottom=0;whiteSpace=wrap;html=1;arcSize=20;autosize=0;autosizeGrid=1;fixedWidth=0;" vertex="1" parent="BN8fjITRdAaJ6UBTvMnP-303">
          <mxGeometry width="347.1264367816092" height="660" as="geometry" />
        </mxCell>
        <mxCell id="BN8fjITRdAaJ6UBTvMnP-278" value="&lt;font style=&quot;font-size: 20px;&quot;&gt;ADH&lt;span style=&quot;white-space: pre;&quot;&gt;&#x9;&lt;/span&gt;&lt;/font&gt;" style="text;strokeColor=none;fillColor=none;align=left;verticalAlign=middle;spacingLeft=4;spacingRight=4;overflow=hidden;points=[[0,0.5],[1,0.5]];portConstraint=eastwest;rotatable=0;whiteSpace=wrap;html=1;arcSize=20;autosize=0;autosizeGrid=1;fixedWidth=0;" vertex="1" parent="BN8fjITRdAaJ6UBTvMnP-277">
          <mxGeometry y="30" width="347.1264367816092" height="210" as="geometry" />
        </mxCell>
        <mxCell id="BN8fjITRdAaJ6UBTvMnP-279" value="&lt;font style=&quot;font-size: 20px;&quot;&gt;ACT&lt;/font&gt;" style="text;strokeColor=none;fillColor=none;align=left;verticalAlign=middle;spacingLeft=4;spacingRight=4;overflow=hidden;points=[[0,0.5],[1,0.5]];portConstraint=eastwest;rotatable=0;whiteSpace=wrap;html=1;arcSize=20;autosize=0;autosizeGrid=1;fixedWidth=0;" vertex="1" parent="BN8fjITRdAaJ6UBTvMnP-277">
          <mxGeometry y="240" width="347.1264367816092" height="210" as="geometry" />
        </mxCell>
        <mxCell id="BN8fjITRdAaJ6UBTvMnP-280" value="&lt;font style=&quot;font-size: 20px;&quot;&gt;REG&lt;/font&gt;" style="text;strokeColor=none;fillColor=none;align=left;verticalAlign=middle;spacingLeft=4;spacingRight=4;overflow=hidden;points=[[0,0.5],[1,0.5]];portConstraint=eastwest;rotatable=0;whiteSpace=wrap;html=1;arcSize=20;autosize=0;autosizeGrid=1;fixedWidth=0;" vertex="1" parent="BN8fjITRdAaJ6UBTvMnP-277">
          <mxGeometry y="450" width="347.1264367816092" height="210" as="geometry" />
        </mxCell>
        <mxCell id="BN8fjITRdAaJ6UBTvMnP-281" value="&lt;font style=&quot;font-size: 20px;&quot;&gt;C1&lt;/font&gt;" style="swimlane;fontStyle=0;childLayout=stackLayout;horizontal=1;startSize=30;horizontalStack=0;resizeParent=1;resizeParentMax=0;resizeLast=0;collapsible=1;marginBottom=0;whiteSpace=wrap;html=1;direction=east;arcSize=20;autosize=0;autosizeGrid=1;fixedWidth=0;" vertex="1" parent="BN8fjITRdAaJ6UBTvMnP-303">
          <mxGeometry x="381.8390804597701" width="347.1264367816092" height="870" as="geometry">
            <mxRectangle x="850" y="930" width="70" height="40" as="alternateBounds" />
          </mxGeometry>
        </mxCell>
        <mxCell id="BN8fjITRdAaJ6UBTvMnP-282" value="&lt;font style=&quot;font-size: 20px;&quot;&gt;ADH&lt;span style=&quot;white-space: pre;&quot;&gt;&#x9;&lt;/span&gt;&lt;/font&gt;" style="text;strokeColor=none;fillColor=none;align=left;verticalAlign=middle;spacingLeft=4;spacingRight=4;overflow=hidden;points=[[0,0.5],[1,0.5]];portConstraint=eastwest;rotatable=0;whiteSpace=wrap;html=1;arcSize=20;autosize=0;autosizeGrid=1;fixedWidth=0;" vertex="1" parent="BN8fjITRdAaJ6UBTvMnP-281">
          <mxGeometry y="30" width="347.1264367816092" height="210" as="geometry" />
        </mxCell>
        <mxCell id="BN8fjITRdAaJ6UBTvMnP-283" value="&lt;font style=&quot;font-size: 20px;&quot;&gt;ACT&lt;/font&gt;" style="text;strokeColor=none;fillColor=none;align=left;verticalAlign=middle;spacingLeft=4;spacingRight=4;overflow=hidden;points=[[0,0.5],[1,0.5]];portConstraint=eastwest;rotatable=0;whiteSpace=wrap;html=1;arcSize=20;autosize=0;autosizeGrid=1;fixedWidth=0;" vertex="1" parent="BN8fjITRdAaJ6UBTvMnP-281">
          <mxGeometry y="240" width="347.1264367816092" height="210" as="geometry" />
        </mxCell>
        <mxCell id="BN8fjITRdAaJ6UBTvMnP-285" value="&lt;font style=&quot;font-size: 20px;&quot;&gt;ACT&lt;span style=&quot;white-space: pre;&quot;&gt;&#x9;&lt;/span&gt;&lt;/font&gt;" style="text;strokeColor=none;fillColor=none;align=left;verticalAlign=middle;spacingLeft=4;spacingRight=4;overflow=hidden;points=[[0,0.5],[1,0.5]];portConstraint=eastwest;rotatable=0;whiteSpace=wrap;html=1;arcSize=20;autosize=0;autosizeGrid=1;fixedWidth=0;" vertex="1" parent="BN8fjITRdAaJ6UBTvMnP-281">
          <mxGeometry y="450" width="347.1264367816092" height="210" as="geometry" />
        </mxCell>
        <mxCell id="BN8fjITRdAaJ6UBTvMnP-284" value="&lt;font style=&quot;font-size: 20px;&quot;&gt;REG&lt;/font&gt;" style="text;strokeColor=none;fillColor=none;align=left;verticalAlign=middle;spacingLeft=4;spacingRight=4;overflow=hidden;points=[[0,0.5],[1,0.5]];portConstraint=eastwest;rotatable=0;whiteSpace=wrap;html=1;arcSize=20;autosize=0;autosizeGrid=1;fixedWidth=0;" vertex="1" parent="BN8fjITRdAaJ6UBTvMnP-281">
          <mxGeometry y="660" width="347.1264367816092" height="210" as="geometry" />
        </mxCell>
        <mxCell id="BN8fjITRdAaJ6UBTvMnP-286" value="&lt;font style=&quot;font-size: 20px;&quot;&gt;C2&lt;/font&gt;" style="swimlane;fontStyle=0;childLayout=stackLayout;horizontal=1;startSize=30;horizontalStack=0;resizeParent=1;resizeParentMax=0;resizeLast=0;collapsible=1;marginBottom=0;whiteSpace=wrap;html=1;direction=east;arcSize=20;autosize=0;autosizeGrid=1;fixedWidth=0;" vertex="1" parent="BN8fjITRdAaJ6UBTvMnP-303">
          <mxGeometry x="1162.873563218391" width="347.1264367816092" height="450" as="geometry">
            <mxRectangle x="850" y="930" width="70" height="40" as="alternateBounds" />
          </mxGeometry>
        </mxCell>
        <mxCell id="BN8fjITRdAaJ6UBTvMnP-287" value="&lt;font style=&quot;font-size: 20px;&quot;&gt;ADH&lt;span style=&quot;white-space: pre;&quot;&gt;&#x9;&lt;/span&gt;&lt;/font&gt;" style="text;strokeColor=none;fillColor=none;align=left;verticalAlign=middle;spacingLeft=4;spacingRight=4;overflow=hidden;points=[[0,0.5],[1,0.5]];portConstraint=eastwest;rotatable=0;whiteSpace=wrap;html=1;arcSize=20;autosize=0;autosizeGrid=1;fixedWidth=0;" vertex="1" parent="BN8fjITRdAaJ6UBTvMnP-286">
          <mxGeometry y="30" width="347.1264367816092" height="210" as="geometry" />
        </mxCell>
        <mxCell id="BN8fjITRdAaJ6UBTvMnP-288" value="&lt;font style=&quot;font-size: 20px;&quot;&gt;REG&lt;/font&gt;" style="text;strokeColor=none;fillColor=none;align=left;verticalAlign=middle;spacingLeft=4;spacingRight=4;overflow=hidden;points=[[0,0.5],[1,0.5]];portConstraint=eastwest;rotatable=0;whiteSpace=wrap;html=1;arcSize=20;autosize=0;autosizeGrid=1;fixedWidth=0;" vertex="1" parent="BN8fjITRdAaJ6UBTvMnP-286">
          <mxGeometry y="240" width="347.1264367816092" height="210" as="geometry" />
        </mxCell>
        <mxCell id="BN8fjITRdAaJ6UBTvMnP-291" value="&lt;font style=&quot;font-size: 20px;&quot;&gt;C2bis&lt;/font&gt;" style="swimlane;fontStyle=0;childLayout=stackLayout;horizontal=1;startSize=30;horizontalStack=0;resizeParent=1;resizeParentMax=0;resizeLast=0;collapsible=1;marginBottom=0;whiteSpace=wrap;html=1;direction=east;arcSize=20;autosize=0;autosizeGrid=1;fixedWidth=0;" vertex="1" parent="BN8fjITRdAaJ6UBTvMnP-303">
          <mxGeometry x="763.6781609195402" width="347.1264367816092" height="450" as="geometry">
            <mxRectangle x="850" y="930" width="70" height="40" as="alternateBounds" />
          </mxGeometry>
        </mxCell>
        <mxCell id="BN8fjITRdAaJ6UBTvMnP-293" value="&lt;font style=&quot;font-size: 20px;&quot;&gt;ACT&lt;/font&gt;" style="text;strokeColor=none;fillColor=none;align=left;verticalAlign=middle;spacingLeft=4;spacingRight=4;overflow=hidden;points=[[0,0.5],[1,0.5]];portConstraint=eastwest;rotatable=0;whiteSpace=wrap;html=1;arcSize=20;autosize=0;autosizeGrid=1;fixedWidth=0;" vertex="1" parent="BN8fjITRdAaJ6UBTvMnP-291">
          <mxGeometry y="30" width="347.1264367816092" height="210" as="geometry" />
        </mxCell>
        <mxCell id="BN8fjITRdAaJ6UBTvMnP-295" value="&lt;font style=&quot;font-size: 20px;&quot;&gt;REG&lt;/font&gt;" style="text;strokeColor=none;fillColor=none;align=left;verticalAlign=middle;spacingLeft=4;spacingRight=4;overflow=hidden;points=[[0,0.5],[1,0.5]];portConstraint=eastwest;rotatable=0;whiteSpace=wrap;html=1;arcSize=20;autosize=0;autosizeGrid=1;fixedWidth=0;" vertex="1" parent="BN8fjITRdAaJ6UBTvMnP-291">
          <mxGeometry y="240" width="347.1264367816092" height="210" as="geometry" />
        </mxCell>
        <mxCell id="BN8fjITRdAaJ6UBTvMnP-297" value="&lt;font style=&quot;font-size: 20px;&quot;&gt;C5&lt;/font&gt;" style="swimlane;fontStyle=0;childLayout=stackLayout;horizontal=1;startSize=30;horizontalStack=0;resizeParent=1;resizeParentMax=0;resizeLast=0;collapsible=1;marginBottom=0;whiteSpace=wrap;html=1;arcSize=20;autosize=0;autosizeGrid=1;fixedWidth=0;" vertex="1" parent="BN8fjITRdAaJ6UBTvMnP-303">
          <mxGeometry x="1170" y="480" width="347.1264367816092" height="240" as="geometry" />
        </mxCell>
        <mxCell id="BN8fjITRdAaJ6UBTvMnP-300" value="&lt;font style=&quot;font-size: 20px;&quot;&gt;ERROR&lt;/font&gt;" style="text;strokeColor=none;fillColor=none;align=left;verticalAlign=middle;spacingLeft=4;spacingRight=4;overflow=hidden;points=[[0,0.5],[1,0.5]];portConstraint=eastwest;rotatable=0;whiteSpace=wrap;html=1;arcSize=20;autosize=0;autosizeGrid=1;fixedWidth=0;" vertex="1" parent="BN8fjITRdAaJ6UBTvMnP-297">
          <mxGeometry y="30" width="347.1264367816092" height="210" as="geometry" />
        </mxCell>
        <mxCell id="BN8fjITRdAaJ6UBTvMnP-301" value="&lt;font style=&quot;font-size: 20px;&quot;&gt;C4&lt;/font&gt;" style="swimlane;fontStyle=0;childLayout=stackLayout;horizontal=1;startSize=30;horizontalStack=0;resizeParent=1;resizeParentMax=0;resizeLast=0;collapsible=1;marginBottom=0;whiteSpace=wrap;html=1;arcSize=20;autosize=0;autosizeGrid=1;fixedWidth=0;" vertex="1" parent="BN8fjITRdAaJ6UBTvMnP-303">
          <mxGeometry x="763.68" y="470" width="347.1264367816092" height="240" as="geometry" />
        </mxCell>
        <mxCell id="BN8fjITRdAaJ6UBTvMnP-302" value="&lt;font style=&quot;font-size: 20px;&quot;&gt;REG&lt;/font&gt;" style="text;strokeColor=none;fillColor=none;align=left;verticalAlign=middle;spacingLeft=4;spacingRight=4;overflow=hidden;points=[[0,0.5],[1,0.5]];portConstraint=eastwest;rotatable=0;whiteSpace=wrap;html=1;arcSize=20;autosize=0;autosizeGrid=1;fixedWidth=0;" vertex="1" parent="BN8fjITRdAaJ6UBTvMnP-301">
          <mxGeometry y="30" width="347.1264367816092" height="210" as="geometry" />
        </mxCell>
        <mxCell id="BN8fjITRdAaJ6UBTvMnP-305" value="" style="endArrow=classic;html=1;rounded=0;exitX=0.833;exitY=1;exitDx=0;exitDy=0;exitPerimeter=0;entryX=0.25;entryY=0;entryDx=0;entryDy=0;" edge="1" parent="1" source="BN8fjITRdAaJ6UBTvMnP-22" target="BN8fjITRdAaJ6UBTvMnP-304">
          <mxGeometry width="50" height="50" relative="1" as="geometry">
            <mxPoint x="479" y="102" as="sourcePoint" />
            <mxPoint x="760" y="238" as="targetPoint" />
          </mxGeometry>
        </mxCell>
        <mxCell id="BN8fjITRdAaJ6UBTvMnP-304" value="&lt;div&gt;OUI&lt;/div&gt;" style="text;strokeColor=none;fillColor=none;align=center;verticalAlign=middle;spacingLeft=4;spacingRight=4;overflow=hidden;points=[[0,0.5],[1,0.5]];portConstraint=eastwest;rotatable=0;whiteSpace=wrap;html=1;" vertex="1" parent="1">
          <mxGeometry x="579.36" y="150" width="80" height="30" as="geometry" />
        </mxCell>
        <mxCell id="BN8fjITRdAaJ6UBTvMnP-307" value="" style="endArrow=classic;html=1;rounded=0;exitX=0.25;exitY=1;exitDx=0;exitDy=0;entryX=0.629;entryY=0.076;entryDx=0;entryDy=0;entryPerimeter=0;" edge="1" parent="1" source="BN8fjITRdAaJ6UBTvMnP-22" target="BN8fjITRdAaJ6UBTvMnP-306">
          <mxGeometry width="50" height="50" relative="1" as="geometry">
            <mxPoint x="409" y="102" as="sourcePoint" />
            <mxPoint x="65" y="236" as="targetPoint" />
            <Array as="points" />
          </mxGeometry>
        </mxCell>
        <mxCell id="BN8fjITRdAaJ6UBTvMnP-306" value="NON" style="text;strokeColor=none;fillColor=none;align=center;verticalAlign=middle;spacingLeft=4;spacingRight=4;overflow=hidden;points=[[0,0.5],[1,0.5]];portConstraint=eastwest;rotatable=0;whiteSpace=wrap;html=1;" vertex="1" parent="1">
          <mxGeometry x="240" y="140" width="80" height="30" as="geometry" />
        </mxCell>
        <mxCell id="BN8fjITRdAaJ6UBTvMnP-308" value="&lt;font style=&quot;font-size: 20px;&quot;&gt;ERROR ?&lt;/font&gt;" style="text;html=1;align=center;verticalAlign=middle;whiteSpace=wrap;rounded=0;" vertex="1" parent="1">
          <mxGeometry x="60" y="170" width="150" height="30" as="geometry" />
        </mxCell>
      </root>
    </mxGraphModel>
  </diagram>
</mxfile>
